<svg width="20" height="18" viewBox="0 0 20 18" fill="none" xmlns="http://www.w3.org/2000/svg">
<path id="Vector" d="M17.687 11.093L17.871 9.38798C17.968 8.47798 18.033 7.87798 17.982 7.49998H18C18.3423 7.49989 18.6743 7.38273 18.9408 7.16796C19.2073 6.95319 19.3924 6.65372 19.4652 6.31928C19.5381 5.98483 19.4944 5.63553 19.3413 5.32935C19.1883 5.02317 18.9352 4.77855 18.6239 4.63608C18.3127 4.49361 17.9621 4.46188 17.6303 4.54614C17.2986 4.63041 17.0056 4.8256 16.8001 5.09933C16.5946 5.37305 16.4888 5.70883 16.5005 6.05092C16.5121 6.39301 16.6404 6.72084 16.864 6.97998C16.538 7.18098 16.112 7.60598 15.471 8.24498C14.976 8.73798 14.729 8.98398 14.453 9.02198C14.3001 9.04309 14.1443 9.02128 14.003 8.95898C13.749 8.84698 13.579 8.54298 13.24 7.93398L11.45 4.72498C11.241 4.34998 11.066 4.03498 10.908 3.78298C11.3083 3.57903 11.6282 3.24625 11.8163 2.83828C12.0044 2.43031 12.0496 1.9709 11.9447 1.53408C11.8399 1.09725 11.591 0.708458 11.2382 0.430339C10.8854 0.152221 10.4492 0.000976563 10 0.000976562C9.55076 0.000976562 9.11461 0.152221 8.76182 0.430339C8.40902 0.708458 8.16014 1.09725 8.05526 1.53408C7.95039 1.9709 7.99563 2.43031 8.18371 2.83828C8.37178 3.24625 8.69173 3.57903 9.092 3.78298C8.934 4.03598 8.759 4.34998 8.549 4.72498L6.76 7.93398C6.42 8.54298 6.25 8.84698 5.996 8.95898C5.85474 9.02128 5.69894 9.04309 5.546 9.02198C5.271 8.98398 5.024 8.73798 4.529 8.24498C3.888 7.60598 3.462 7.18098 3.136 6.97998C3.35963 6.72084 3.48791 6.39301 3.49953 6.05092C3.51115 5.70883 3.40543 5.37305 3.1999 5.09933C2.99438 4.8256 2.70142 4.63041 2.36966 4.54614C2.03791 4.46188 1.68731 4.49361 1.37607 4.63608C1.06484 4.77855 0.811693 5.02317 0.658659 5.32935C0.505625 5.63553 0.461911 5.98483 0.534773 6.31928C0.607635 6.65372 0.792691 6.95319 1.05922 7.16796C1.32574 7.38273 1.65771 7.49989 2 7.49998H2.018C1.967 7.87798 2.032 8.47898 2.129 9.38798L2.313 11.093C2.415 12.039 2.499 12.94 2.603 13.75H17.397C17.501 12.94 17.585 12.04 17.687 11.093ZM8.912 18H11.088C13.924 18 15.342 18 16.288 17.153C16.701 16.783 16.962 16.117 17.151 15.25H2.849C3.038 16.117 3.299 16.784 3.712 17.153C4.658 18 6.076 18 8.912 18Z" fill="#9B9DA3"/>
</svg>
