<svg width="40" height="40" viewBox="0 0 40 40" fill="none" xmlns="http://www.w3.org/2000/svg">
<g id="Material icons/lock_open" clip-path="url(#clip0_1134_114)">
<path id="Vector" d="M20 28.3333C21.8333 28.3333 23.3333 26.8333 23.3333 25C23.3333 23.1666 21.8333 21.6666 20 21.6666C18.1667 21.6666 16.6667 23.1666 16.6667 25C16.6667 26.8333 18.1667 28.3333 20 28.3333ZM30 13.3333H28.3333V9.99996C28.3333 5.39996 24.6 1.66663 20 1.66663C15.4 1.66663 11.6667 5.39996 11.6667 9.99996H14.8333C14.8333 7.14996 17.15 4.83329 20 4.83329C22.85 4.83329 25.1667 7.14996 25.1667 9.99996V13.3333H10C8.16667 13.3333 6.66667 14.8333 6.66667 16.6666V33.3333C6.66667 35.1666 8.16667 36.6666 10 36.6666H30C31.8333 36.6666 33.3333 35.1666 33.3333 33.3333V16.6666C33.3333 14.8333 31.8333 13.3333 30 13.3333ZM30 33.3333H10V16.6666H30V33.3333Z" fill="url(#paint0_linear_1134_114)"/>
</g>
<defs>
<linearGradient id="paint0_linear_1134_114" x1="6.66667" y1="19.1666" x2="33.3333" y2="19.1666" gradientUnits="userSpaceOnUse">
<stop stop-color="#FFD706"/>
<stop offset="1" stop-color="#FF725F"/>
</linearGradient>
<clipPath id="clip0_1134_114">
<rect width="40" height="40" fill="white"/>
</clipPath>
</defs>
</svg>
