<svg width="24" height="24" viewBox="0 0 24 24" fill="none" xmlns="http://www.w3.org/2000/svg">
<g id="Material icons/restore" clip-path="url(#clip0_1295_1824)">
<path id="Vector" d="M13.25 2.99959C8.16 2.85959 3.99 6.93959 3.99 11.9996H2.2C1.75 11.9996 1.53 12.5396 1.85 12.8496L4.64 15.6496C4.84 15.8496 5.15 15.8496 5.35 15.6496L8.14 12.8496C8.46 12.5396 8.23 11.9996 7.79 11.9996H5.99C5.99 8.09959 9.17 4.94959 13.09 4.99959C16.81 5.04959 19.94 8.17959 19.99 11.8996C20.04 15.8096 16.89 18.9996 12.99 18.9996C11.38 18.9996 9.89 18.4496 8.71 17.5196C8.31 17.2096 7.75 17.2396 7.39 17.5996C6.97 18.0296 7 18.7296 7.47 19.0996C8.99 20.2896 10.91 20.9996 12.99 20.9996C18.04 20.9996 22.13 16.8296 21.99 11.7396C21.86 7.04959 17.94 3.12959 13.25 2.99959ZM12.74 7.99959C12.33 7.99959 11.99 8.33959 11.99 8.74959V12.4296C11.99 12.7796 12.18 13.1096 12.48 13.2896L15.6 15.1396C15.96 15.3496 16.42 15.2296 16.63 14.8796C16.84 14.5196 16.72 14.0596 16.37 13.8496L13.49 12.1396V8.73959C13.49 8.33959 13.16 7.99959 12.74 7.99959Z" fill="#9B9DA3"/>
</g>
<defs>
<clipPath id="clip0_1295_1824">
<rect width="24" height="24" fill="white"/>
</clipPath>
</defs>
</svg>
