<svg width="32" height="36" viewBox="0 0 32 36" fill="none" xmlns="http://www.w3.org/2000/svg">
<g id="Vector">
<path id="Vector_2" d="M27.0515 18.6434C26.5897 18.3861 26.1113 18.1769 25.633 18C26.1113 17.8231 26.5897 17.6139 27.0515 17.3566C30.2186 15.571 31.9835 12.3378 32 9.00804C29.0474 7.35121 25.2866 7.22252 22.1031 9.00804C21.6412 9.26542 21.2124 9.57104 20.8165 9.87667C20.899 9.37802 20.9485 8.86327 20.9485 8.34853C20.9485 4.77748 18.9526 1.67292 16 0C13.0474 1.67292 11.0515 4.77748 11.0515 8.34853C11.0515 8.86327 11.101 9.37802 11.1835 9.87667C10.7876 9.55496 10.3588 9.24933 9.89691 8.99196C6.7299 7.20643 2.96907 7.33512 0 8.99196C0 12.3217 1.76495 15.555 4.94845 17.3405C5.41031 17.5979 5.88866 17.807 6.36701 17.9839C5.88866 18.1609 5.41031 18.37 4.94845 18.6273C1.78144 20.4129 0.0164948 23.6461 0 26.9759C2.95258 28.6327 6.7134 28.7614 9.89691 26.9759C10.3588 26.7185 10.7876 26.4129 11.1835 26.1072C11.101 26.622 11.0515 27.1367 11.0515 27.6515C11.0515 31.2225 13.0474 34.3271 16 36C18.9526 34.3271 20.9485 31.2225 20.9485 27.6515C20.9485 27.1367 20.899 26.622 20.8165 26.1233C21.2124 26.445 21.6412 26.7346 22.1031 26.992C25.2701 28.7775 29.0309 28.6488 32 26.992C31.9835 23.6622 30.2186 20.429 27.0515 18.6434ZM16 24.4343C12.3546 24.4343 9.40206 21.555 9.40206 18C9.40206 14.445 12.3546 11.5657 16 11.5657C19.6454 11.5657 22.5979 14.445 22.5979 18C22.5979 21.555 19.6454 24.4343 16 24.4343Z" fill="url(#paint0_linear_1134_18)"/>
</g>
<defs>
<linearGradient id="paint0_linear_1134_18" x1="0" y1="18" x2="32" y2="18" gradientUnits="userSpaceOnUse">
<stop stop-color="#FFD706"/>
<stop offset="1" stop-color="#FF725F"/>
</linearGradient>
</defs>
</svg>
